# xmcd CD database file generated by Grip 3.2.0
# 
# Track frame offsets:
#       150
#       20327
#       58447
#       93970
#       113570
#       137360
#       155922
#       171427
#       193245
#       211607
#       232125
#       252790
#       273072
#       296407
#       311982
# 
# Disc length: 4495 seconds
# 
# Revision: 2
# Processed by: cddbd v1.5.2PL0 Copyright (c) Steve Scherf et al.
# Submitted via: Grip 3.2.0
# 
DISCID=d9118d0f
DTITLE=George Thorogood and Destroyers - Anthology
DYEAR=2000
DGENRE=Blues
TTITLE0=Madison Blues
TTITLE1=One Bourbon, One Scotch, One Be
TTITLE2=Delaware Slide
TTITLE3=Move It On Over
TTITLE4=The Sky Is Crying
TTITLE5=I'm Wanted
TTITLE6=Nobody But Me
TTITLE7=Bad To The Bone
TTITLE8=Willie and The Hand Jive
TTITLE9=I Dring Alone
TTITLE10=Gear Jammer
TTITLE11=Long Gone
TTITLE12=Reelin' and Rockin'
TTITLE13=Bottom Of The Sea
TTITLE14=Night Time
EXTD=
EXTT0=
EXTT1=
EXTT2=
EXTT3=
EXTT4=
EXTT5=
EXTT6=
EXTT7=
EXTT8=
EXTT9=
EXTT10=
EXTT11=
EXTT12=
EXTT13=
EXTT14=
PLAYORDER=
